<svg id="Layer_1" data-name="Layer 1" xmlns="http://www.w3.org/2000/svg" viewBox="0 0 622.84 544.96"><defs><style>.cls-1{fill:#5f6063;}</style></defs><path class="cls-1" d="M228.58,345.21l39,.05-.08-.09c0,1.28,0,2.56,0,3.84V773.35H812.66V387.68c0-1.19,0-2.38,0-3.57l-.07.08h38.79V812.48H228.58Z" transform="translate(-228.58 -267.52)"/><path class="cls-1" d="M462.18,306.32h39l-.08-.08V345H657V306.24l-.08.08h38.88v38.82H812.62c0,13.19,0,26.12,0,39.05l.07-.08c-.36,0-.73,0-1.1,0H464.74c-.79,0-1.58-.09-2.49-.15V306.24Z" transform="translate(-228.58 -267.52)"/><path class="cls-1" d="M306.5,306.31V267.52H462.18v38.8l.07-.08H306.42Z" transform="translate(-228.58 -267.52)"/><path class="cls-1" d="M501.19,306.32v-38.8H656.87v38.8l.08-.08H501.11Z" transform="translate(-228.58 -267.52)"/><path class="cls-1" d="M267.56,345.26V306.31H306.5l-.08-.07v38.93H267.48Z" transform="translate(-228.58 -267.52)"/><path class="cls-1" d="M618,656.68q-22.18,0-44.38,0H426.8c-1.19,0-2.37,0-3.56-.05l.08.08V618h194.6v38.79Z" transform="translate(-228.58 -267.52)"/><path class="cls-1" d="M423.24,656.67v38.8H345.58V656.75h77.74Z" transform="translate(-228.58 -267.52)"/><path class="cls-1" d="M617.92,656.76H695.8v38.93l.08-.07H618V656.68Z" transform="translate(-228.58 -267.52)"/><path class="cls-1" d="M695.8,695.69h77.72v38.73H695.88v-38.8Z" transform="translate(-228.58 -267.52)"/><path class="cls-1" d="M384.46,461.88H345.54V423.31h38.85V462Z" transform="translate(-228.58 -267.52)"/><path class="cls-1" d="M423.43,462.16V423.23H462v38.85H423.34Z" transform="translate(-228.58 -267.52)"/><path class="cls-1" d="M618.1,461.88H579.17V423.31H618V462Z" transform="translate(-228.58 -267.52)"/><path class="cls-1" d="M657.06,462.16V423.23h38.57v38.85H657Z" transform="translate(-228.58 -267.52)"/><path class="cls-1" d="M384.38,501q0-19.56.08-39.12l-.07.08q17.88,0,35.76.08c1.09,0,2.18.07,3.27.12l-.08-.08q-.06,19.47-.11,38.92l.07-.08h-39Z" transform="translate(-228.58 -267.52)"/><path class="cls-1" d="M656.94,500.92h-39l.07.08q0-19.56.08-39.12L618,462q17.88,0,35.77.08c1.09,0,2.17.07,3.27.12l-.09-.08q0,19.47-.11,38.92Z" transform="translate(-228.58 -267.52)"/><path class="cls-1" d="M384.3,500.92v38.79H345.58V501h38.8Z" transform="translate(-228.58 -267.52)"/><path class="cls-1" d="M423.23,501H462v38.72H423.3v-38.8Z" transform="translate(-228.58 -267.52)"/><path class="cls-1" d="M617.94,500.92v38.79H579.21V501H618Z" transform="translate(-228.58 -267.52)"/><path class="cls-1" d="M656.86,501h38.78v38.72h-38.7v-38.8Z" transform="translate(-228.58 -267.52)"/></svg>