<svg id="Layer_1" data-name="Layer 1" xmlns="http://www.w3.org/2000/svg" viewBox="0 0 1931.38 2324.05"><defs><style>.cls-1{fill:#237d26;}.cls-2{fill:#008837;}.cls-3{fill:#80c41c;}.cls-4{fill:#40a629;}</style></defs><rect class="cls-1" x="601.41" y="925.74" width="46.09" height="46.09"/><rect class="cls-1" x="555.33" y="971.82" width="46.08" height="46.08"/><rect class="cls-1" x="462.58" y="1064.57" width="46.66" height="46.09"/><rect class="cls-1" x="462.58" y="786.91" width="46.66" height="46.08"/><rect class="cls-1" x="416.5" y="1110.65" width="46.08" height="46.08"/><rect class="cls-1" x="416.5" y="832.99" width="46.08" height="46.09"/><polygon class="cls-1" points="416.5 601.42 416.5 555.33 370.41 555.33 370.41 601.42 370.41 648.08 416.5 648.08 416.5 601.42"/><rect class="cls-1" x="323.75" y="1202.83" width="46.66" height="46.66"/><rect class="cls-1" x="323.75" y="925.74" width="46.66" height="46.09"/><rect class="cls-1" x="277.66" y="1249.48" width="46.09" height="46.08"/><rect class="cls-1" x="277.66" y="971.82" width="46.09" height="46.08"/><rect class="cls-1" x="184.92" y="1064.57" width="46.66" height="46.09"/><rect class="cls-1" x="138.83" y="1110.65" width="46.09" height="46.08"/><rect class="cls-2" x="601.41" y="1110.65" width="46.09" height="46.08"/><rect class="cls-2" x="555.33" y="1064.57" width="46.08" height="46.09"/><rect class="cls-2" x="509.24" y="1017.91" width="46.09" height="46.66"/><rect class="cls-2" x="462.58" y="1249.48" width="46.66" height="46.08"/><rect class="cls-2" x="462.58" y="971.82" width="46.66" height="46.08"/><rect class="cls-2" x="416.5" y="1202.83" width="46.08" height="46.66"/><rect class="cls-2" x="416.5" y="925.74" width="46.08" height="46.09"/><rect class="cls-2" x="370.41" y="1156.74" width="46.09" height="46.09"/><rect class="cls-2" x="370.41" y="879.07" width="46.09" height="46.66"/><polygon class="cls-2" points="416.5 324.33 416.5 277.67 370.41 277.67 370.41 324.33 370.41 370.41 416.5 370.41 416.5 324.33"/><rect class="cls-2" x="323.75" y="1110.65" width="46.66" height="46.08"/><rect class="cls-2" x="323.75" y="832.99" width="46.66" height="46.09"/><rect class="cls-2" x="277.66" y="1064.57" width="46.09" height="46.09"/><rect class="cls-2" x="277.66" y="786.91" width="46.09" height="46.08"/><rect class="cls-2" x="231.58" y="1017.91" width="46.08" height="46.66"/><rect class="cls-2" x="184.92" y="971.82" width="46.66" height="46.08"/><rect class="cls-2" x="138.83" y="925.74" width="46.09" height="46.09"/><polygon class="cls-3" points="601.41 879.08 601.41 832.99 555.33 832.99 555.33 786.91 509.24 786.91 509.24 832.99 462.58 832.99 462.58 879.08 416.5 879.08 416.5 925.74 462.58 925.74 462.58 971.82 509.24 971.82 509.24 1017.91 555.33 1017.91 555.33 971.82 601.41 971.82 601.41 925.74 647.5 925.74 647.5 879.08 601.41 879.08"/><polygon class="cls-3" points="601.41 1110.65 555.33 1110.65 555.33 1064.57 509.24 1064.57 509.24 1110.65 462.58 1110.65 462.58 1156.74 416.5 1156.74 416.5 1202.83 462.58 1202.83 462.58 1249.48 509.24 1249.48 509.24 1295.57 555.33 1295.57 555.33 1249.48 601.41 1249.48 601.41 1202.83 647.5 1202.83 647.5 1156.74 601.41 1156.74 601.41 1110.65"/><polygon class="cls-3" points="416.5 509.25 416.5 462.58 370.41 462.58 370.41 509.25 370.41 555.33 416.5 555.33 416.5 509.25"/><polygon class="cls-3" points="416.5 138.84 416.5 92.75 370.41 92.75 370.41 138.84 370.41 185.5 416.5 185.5 416.5 138.84"/><polygon class="cls-3" points="323.75 1110.65 277.66 1110.65 277.66 1064.57 231.58 1064.57 231.58 1110.65 184.92 1110.65 184.92 1156.74 138.83 1156.74 138.83 1202.83 184.92 1202.83 184.92 1249.48 231.58 1249.48 231.58 1295.57 277.66 1295.57 277.66 1249.48 323.75 1249.48 323.75 1202.83 370.41 1202.83 370.41 1156.74 323.75 1156.74 323.75 1110.65"/><polygon class="cls-3" points="323.75 832.99 277.66 832.99 277.66 786.91 231.58 786.91 231.58 832.99 184.92 832.99 184.92 879.08 138.83 879.08 138.83 925.74 184.92 925.74 184.92 971.82 231.58 971.82 231.58 1017.91 277.66 1017.91 277.66 971.82 323.75 971.82 323.75 925.74 370.41 925.74 370.41 879.08 323.75 879.08 323.75 832.99"/><polygon class="cls-4" points="740.24 1017.91 740.24 971.82 694.16 971.82 694.16 925.74 647.5 925.74 647.5 971.82 601.41 971.82 601.41 1017.91 555.33 1017.91 555.33 1064.57 601.41 1064.57 601.41 1110.65 647.5 1110.65 647.5 1156.74 694.16 1156.74 694.16 1110.65 740.24 1110.65 740.24 1064.57 786.33 1064.57 786.33 1017.91 740.24 1017.91"/><polygon class="cls-4" points="462.58 1249.48 416.5 1249.48 416.5 1202.83 370.41 1202.83 370.41 1249.48 323.75 1249.48 323.75 1295.57 277.66 1295.57 277.66 1341.65 323.75 1341.65 323.75 1388.32 370.41 1388.32 370.41 1434.4 416.5 1434.4 416.5 1388.32 462.58 1388.32 462.58 1341.65 509.24 1341.65 509.24 1295.57 462.58 1295.57 462.58 1249.48"/><polygon class="cls-4" points="462.58 971.82 416.5 971.82 416.5 925.74 370.41 925.74 370.41 971.82 323.75 971.82 323.75 1017.91 277.66 1017.91 277.66 1064.57 323.75 1064.57 323.75 1110.65 370.41 1110.65 370.41 1156.74 416.5 1156.74 416.5 1110.65 462.58 1110.65 462.58 1064.57 509.24 1064.57 509.24 1017.91 462.58 1017.91 462.58 971.82"/><polygon class="cls-4" points="462.58 694.16 416.5 694.16 416.5 648.08 370.41 648.08 370.41 694.16 323.75 694.16 323.75 740.24 277.66 740.24 277.66 786.91 323.75 786.91 323.75 832.99 370.41 832.99 370.41 879.08 416.5 879.08 416.5 832.99 462.58 832.99 462.58 786.91 509.24 786.91 509.24 740.24 462.58 740.24 462.58 694.16"/><polygon class="cls-4" points="416.5 416.5 416.5 370.41 370.41 370.41 370.41 416.5 370.41 462.58 416.5 462.58 416.5 416.5"/><polygon class="cls-4" points="416.5 231.58 416.5 185.5 370.41 185.5 370.41 231.58 370.41 277.67 416.5 277.67 416.5 231.58"/><polygon class="cls-4" points="416.5 46.67 416.5 0 370.41 0 370.41 46.67 370.41 92.75 416.5 92.75 416.5 46.67"/><polygon class="cls-4" points="184.92 971.82 138.83 971.82 138.83 925.74 92.75 925.74 92.75 971.82 46.09 971.82 46.09 1017.91 0 1017.91 0 1064.57 46.09 1064.57 46.09 1110.65 92.75 1110.65 92.75 1156.74 138.83 1156.74 138.83 1110.65 184.92 1110.65 184.92 1064.57 231.58 1064.57 231.58 1017.91 184.92 1017.91 184.92 971.82"/><rect class="cls-1" x="1133.41" y="1617.33" width="64.03" height="64.03"/><rect class="cls-1" x="1069.39" y="1681.36" width="64.02" height="64.03"/><rect class="cls-1" x="940.52" y="1810.21" width="64.83" height="64.03"/><rect class="cls-1" x="940.52" y="1424.44" width="64.83" height="64.03"/><rect class="cls-1" x="876.5" y="1874.25" width="64.03" height="64.03"/><rect class="cls-1" x="876.5" y="1488.46" width="64.03" height="64.03"/><polygon class="cls-1" points="876.5 1166.72 876.5 1102.69 812.47 1102.69 812.47 1166.72 812.47 1231.55 876.5 1231.55 876.5 1166.72"/><rect class="cls-1" x="747.64" y="2002.31" width="64.83" height="64.83"/><rect class="cls-1" x="747.64" y="1617.33" width="64.83" height="64.03"/><rect class="cls-1" x="683.6" y="2067.13" width="64.03" height="64.03"/><rect class="cls-1" x="683.6" y="1681.36" width="64.03" height="64.03"/><rect class="cls-1" x="554.75" y="1810.21" width="64.83" height="64.03"/><rect class="cls-1" x="490.71" y="1874.25" width="64.03" height="64.03"/><rect class="cls-2" x="1133.41" y="1874.25" width="64.03" height="64.03"/><rect class="cls-2" x="1069.39" y="1810.21" width="64.02" height="64.03"/><rect class="cls-2" x="1005.35" y="1745.38" width="64.04" height="64.83"/><rect class="cls-2" x="940.52" y="2067.13" width="64.83" height="64.03"/><rect class="cls-2" x="940.52" y="1681.36" width="64.83" height="64.03"/><rect class="cls-2" x="876.5" y="2002.31" width="64.03" height="64.83"/><rect class="cls-2" x="876.5" y="1617.33" width="64.03" height="64.03"/><rect class="cls-2" x="812.46" y="1938.27" width="64.03" height="64.04"/><rect class="cls-2" x="812.46" y="1552.5" width="64.03" height="64.83"/><polygon class="cls-2" points="876.5 781.75 876.5 716.92 812.47 716.92 812.47 781.75 812.47 845.77 876.5 845.77 876.5 781.75"/><rect class="cls-2" x="747.64" y="1874.25" width="64.83" height="64.03"/><rect class="cls-2" x="747.64" y="1488.46" width="64.83" height="64.03"/><rect class="cls-2" x="683.6" y="1810.21" width="64.03" height="64.03"/><rect class="cls-2" x="683.6" y="1424.44" width="64.03" height="64.03"/><rect class="cls-2" x="619.58" y="1745.38" width="64.03" height="64.83"/><rect class="cls-2" x="554.75" y="1681.36" width="64.83" height="64.03"/><rect class="cls-2" x="490.71" y="1617.33" width="64.03" height="64.03"/><polygon class="cls-3" points="1133.41 1552.5 1133.41 1488.46 1069.39 1488.46 1069.39 1424.44 1005.35 1424.44 1005.35 1488.46 940.52 1488.46 940.52 1552.5 876.5 1552.5 876.5 1617.33 940.52 1617.33 940.52 1681.36 1005.35 1681.36 1005.35 1745.38 1069.39 1745.38 1069.39 1681.36 1133.41 1681.36 1133.41 1617.33 1197.44 1617.33 1197.44 1552.5 1133.41 1552.5"/><polygon class="cls-3" points="1133.41 1874.25 1069.39 1874.25 1069.39 1810.21 1005.35 1810.21 1005.35 1874.25 940.52 1874.25 940.52 1938.27 876.5 1938.27 876.5 2002.31 940.52 2002.31 940.52 2067.14 1005.35 2067.14 1005.35 2131.16 1069.39 2131.16 1069.39 2067.14 1133.41 2067.14 1133.41 2002.31 1197.44 2002.31 1197.44 1938.27 1133.41 1938.27 1133.41 1874.25"/><polygon class="cls-3" points="876.5 1038.66 876.5 973.83 812.47 973.83 812.47 1038.66 812.47 1102.69 876.5 1102.69 876.5 1038.66"/><polygon class="cls-3" points="876.5 524.03 876.5 460 812.47 460 812.47 524.03 812.47 588.86 876.5 588.86 876.5 524.03"/><polygon class="cls-3" points="747.64 1874.25 683.6 1874.25 683.6 1810.21 619.58 1810.21 619.58 1874.25 554.75 1874.25 554.75 1938.27 490.71 1938.27 490.71 2002.31 554.75 2002.31 554.75 2067.14 619.58 2067.14 619.58 2131.16 683.6 2131.16 683.6 2067.14 747.64 2067.14 747.64 2002.31 812.47 2002.31 812.47 1938.27 747.64 1938.27 747.64 1874.25"/><polygon class="cls-3" points="747.64 1488.46 683.6 1488.46 683.6 1424.44 619.58 1424.44 619.58 1488.46 554.75 1488.46 554.75 1552.5 490.71 1552.5 490.71 1617.33 554.75 1617.33 554.75 1681.36 619.58 1681.36 619.58 1745.38 683.6 1745.38 683.6 1681.36 747.64 1681.36 747.64 1617.33 812.47 1617.33 812.47 1552.5 747.64 1552.5 747.64 1488.46"/><polygon class="cls-4" points="1326.3 1745.38 1326.3 1681.36 1262.27 1681.36 1262.27 1617.33 1197.44 1617.33 1197.44 1681.36 1133.41 1681.36 1133.41 1745.38 1069.39 1745.38 1069.39 1810.21 1133.41 1810.21 1133.41 1874.25 1197.44 1874.25 1197.44 1938.27 1262.27 1938.27 1262.27 1874.25 1326.3 1874.25 1326.3 1810.21 1390.33 1810.21 1390.33 1745.38 1326.3 1745.38"/><polygon class="cls-4" points="940.52 2067.14 876.5 2067.14 876.5 2002.31 812.47 2002.31 812.47 2067.14 747.64 2067.14 747.64 2131.16 683.6 2131.16 683.6 2195.2 747.64 2195.2 747.64 2260.02 812.47 2260.02 812.47 2324.05 876.5 2324.05 876.5 2260.02 940.52 2260.02 940.52 2195.2 1005.35 2195.2 1005.35 2131.16 940.52 2131.16 940.52 2067.14"/><polygon class="cls-4" points="940.52 1681.36 876.5 1681.36 876.5 1617.33 812.47 1617.33 812.47 1681.36 747.64 1681.36 747.64 1745.38 683.6 1745.38 683.6 1810.21 747.64 1810.21 747.64 1874.25 812.47 1874.25 812.47 1938.27 876.5 1938.27 876.5 1874.25 940.52 1874.25 940.52 1810.21 1005.35 1810.21 1005.35 1745.38 940.52 1745.38 940.52 1681.36"/><polygon class="cls-4" points="940.52 1295.58 876.5 1295.58 876.5 1231.55 812.47 1231.55 812.47 1295.58 747.64 1295.58 747.64 1359.61 683.6 1359.61 683.6 1424.44 747.64 1424.44 747.64 1488.46 812.47 1488.46 812.47 1552.5 876.5 1552.5 876.5 1488.46 940.52 1488.46 940.52 1424.44 1005.35 1424.44 1005.35 1359.61 940.52 1359.61 940.52 1295.58"/><polygon class="cls-4" points="876.5 909.8 876.5 845.77 812.47 845.77 812.47 909.8 812.47 973.83 876.5 973.83 876.5 909.8"/><polygon class="cls-4" points="876.5 652.88 876.5 588.86 812.47 588.86 812.47 652.88 812.47 716.92 876.5 716.92 876.5 652.88"/><polygon class="cls-4" points="876.5 395.97 876.5 331.13 812.47 331.13 812.47 395.97 812.47 460 876.5 460 876.5 395.97"/><polygon class="cls-4" points="554.75 1681.36 490.71 1681.36 490.71 1617.33 426.69 1617.33 426.69 1681.36 361.86 1681.36 361.86 1745.38 297.83 1745.38 297.83 1810.21 361.86 1810.21 361.86 1874.25 426.69 1874.25 426.69 1938.27 490.71 1938.27 490.71 1874.25 554.75 1874.25 554.75 1810.21 619.58 1810.21 619.58 1745.38 554.75 1745.38 554.75 1681.36"/><rect class="cls-1" x="1729.76" y="1095.94" width="50.25" height="50.25"/><rect class="cls-1" x="1679.52" y="1146.19" width="50.24" height="50.25"/><rect class="cls-1" x="1578.39" y="1247.31" width="50.88" height="50.25"/><rect class="cls-1" x="1578.39" y="944.57" width="50.88" height="50.24"/><rect class="cls-1" x="1528.15" y="1297.56" width="50.25" height="50.24"/><rect class="cls-1" x="1528.15" y="994.82" width="50.25" height="50.25"/><polygon class="cls-1" points="1528.15 742.33 1528.15 692.08 1477.9 692.08 1477.9 742.33 1477.9 793.2 1528.15 793.2 1528.15 742.33"/><rect class="cls-1" x="1427.02" y="1398.06" width="50.88" height="50.87"/><rect class="cls-1" x="1427.02" y="1095.94" width="50.88" height="50.25"/><rect class="cls-1" x="1376.77" y="1448.93" width="50.25" height="50.25"/><rect class="cls-1" x="1376.77" y="1146.19" width="50.25" height="50.25"/><rect class="cls-1" x="1275.65" y="1247.31" width="50.88" height="50.25"/><rect class="cls-1" x="1225.4" y="1297.56" width="50.25" height="50.24"/><rect class="cls-2" x="1729.76" y="1297.56" width="50.25" height="50.24"/><rect class="cls-2" x="1679.52" y="1247.31" width="50.24" height="50.25"/><rect class="cls-2" x="1629.27" y="1196.44" width="50.25" height="50.88"/><rect class="cls-2" x="1578.39" y="1448.93" width="50.88" height="50.25"/><rect class="cls-2" x="1578.39" y="1146.19" width="50.88" height="50.25"/><rect class="cls-2" x="1528.15" y="1398.06" width="50.25" height="50.87"/><rect class="cls-2" x="1528.15" y="1095.94" width="50.25" height="50.25"/><rect class="cls-2" x="1477.9" y="1347.8" width="50.25" height="50.25"/><rect class="cls-2" x="1477.9" y="1045.07" width="50.25" height="50.88"/><polygon class="cls-2" points="1528.15 440.21 1528.15 389.34 1477.9 389.34 1477.9 440.21 1477.9 490.46 1528.15 490.46 1528.15 440.21"/><rect class="cls-2" x="1427.02" y="1297.56" width="50.88" height="50.24"/><rect class="cls-2" x="1427.02" y="994.82" width="50.88" height="50.25"/><rect class="cls-2" x="1376.77" y="1247.31" width="50.25" height="50.25"/><rect class="cls-2" x="1376.77" y="944.57" width="50.25" height="50.24"/><rect class="cls-2" x="1326.53" y="1196.44" width="50.25" height="50.88"/><rect class="cls-2" x="1275.65" y="1146.19" width="50.88" height="50.25"/><rect class="cls-2" x="1225.4" y="1095.94" width="50.25" height="50.25"/><polygon class="cls-3" points="1729.76 1045.07 1729.76 994.82 1679.52 994.82 1679.52 944.57 1629.27 944.57 1629.27 994.82 1578.39 994.82 1578.39 1045.07 1528.15 1045.07 1528.15 1095.94 1578.39 1095.94 1578.39 1146.19 1629.27 1146.19 1629.27 1196.43 1679.52 1196.43 1679.52 1146.19 1729.76 1146.19 1729.76 1095.94 1780.01 1095.94 1780.01 1045.07 1729.76 1045.07"/><polygon class="cls-3" points="1729.76 1297.56 1679.52 1297.56 1679.52 1247.31 1629.27 1247.31 1629.27 1297.56 1578.39 1297.56 1578.39 1347.81 1528.15 1347.81 1528.15 1398.06 1578.39 1398.06 1578.39 1448.93 1629.27 1448.93 1629.27 1499.17 1679.52 1499.17 1679.52 1448.93 1729.76 1448.93 1729.76 1398.06 1780.01 1398.06 1780.01 1347.81 1729.76 1347.81 1729.76 1297.56"/><polygon class="cls-3" points="1528.15 641.83 1528.15 590.95 1477.9 590.95 1477.9 641.83 1477.9 692.08 1528.15 692.08 1528.15 641.83"/><polygon class="cls-3" points="1528.15 237.97 1528.15 187.72 1477.9 187.72 1477.9 237.97 1477.9 288.84 1528.15 288.84 1528.15 237.97"/><polygon class="cls-3" points="1427.02 1297.56 1376.77 1297.56 1376.77 1247.31 1326.53 1247.31 1326.53 1297.56 1275.65 1297.56 1275.65 1347.81 1225.4 1347.81 1225.4 1398.06 1275.65 1398.06 1275.65 1448.93 1326.53 1448.93 1326.53 1499.17 1376.77 1499.17 1376.77 1448.93 1427.02 1448.93 1427.02 1398.06 1477.9 1398.06 1477.9 1347.81 1427.02 1347.81 1427.02 1297.56"/><polygon class="cls-3" points="1427.02 994.82 1376.77 994.82 1376.77 944.57 1326.53 944.57 1326.53 994.82 1275.65 994.82 1275.65 1045.07 1225.4 1045.07 1225.4 1095.94 1275.65 1095.94 1275.65 1146.19 1326.53 1146.19 1326.53 1196.43 1376.77 1196.43 1376.77 1146.19 1427.02 1146.19 1427.02 1095.94 1477.9 1095.94 1477.9 1045.07 1427.02 1045.07 1427.02 994.82"/><polygon class="cls-4" points="1881.13 1196.43 1881.13 1146.19 1830.88 1146.19 1830.88 1095.94 1780.01 1095.94 1780.01 1146.19 1729.76 1146.19 1729.76 1196.43 1679.52 1196.43 1679.52 1247.31 1729.76 1247.31 1729.76 1297.56 1780.01 1297.56 1780.01 1347.81 1830.88 1347.81 1830.88 1297.56 1881.13 1297.56 1881.13 1247.31 1931.38 1247.31 1931.38 1196.43 1881.13 1196.43"/><polygon class="cls-4" points="1578.39 1448.93 1528.15 1448.93 1528.15 1398.06 1477.9 1398.06 1477.9 1448.93 1427.02 1448.93 1427.02 1499.17 1376.77 1499.17 1376.77 1549.42 1427.02 1549.42 1427.02 1600.3 1477.9 1600.3 1477.9 1650.55 1528.15 1650.55 1528.15 1600.3 1578.39 1600.3 1578.39 1549.42 1629.27 1549.42 1629.27 1499.17 1578.39 1499.17 1578.39 1448.93"/><polygon class="cls-4" points="1578.39 1146.19 1528.15 1146.19 1528.15 1095.94 1477.9 1095.94 1477.9 1146.19 1427.02 1146.19 1427.02 1196.43 1376.77 1196.43 1376.77 1247.31 1427.02 1247.31 1427.02 1297.56 1477.9 1297.56 1477.9 1347.81 1528.15 1347.81 1528.15 1297.56 1578.39 1297.56 1578.39 1247.31 1629.27 1247.31 1629.27 1196.43 1578.39 1196.43 1578.39 1146.19"/><polygon class="cls-4" points="1578.39 843.45 1528.15 843.45 1528.15 793.2 1477.9 793.2 1477.9 843.45 1427.02 843.45 1427.02 893.7 1376.77 893.7 1376.77 944.57 1427.02 944.57 1427.02 994.82 1477.9 994.82 1477.9 1045.07 1528.15 1045.07 1528.15 994.82 1578.39 994.82 1578.39 944.57 1629.27 944.57 1629.27 893.7 1578.39 893.7 1578.39 843.45"/><polygon class="cls-4" points="1528.15 540.71 1528.15 490.46 1477.9 490.46 1477.9 540.71 1477.9 590.95 1528.15 590.95 1528.15 540.71"/><polygon class="cls-4" points="1528.15 339.09 1528.15 288.84 1477.9 288.84 1477.9 339.09 1477.9 389.34 1528.15 389.34 1528.15 339.09"/><polygon class="cls-4" points="1528.15 137.47 1528.15 86.59 1477.9 86.59 1477.9 137.47 1477.9 187.72 1528.15 187.72 1528.15 137.47"/><polygon class="cls-4" points="1275.65 1146.19 1225.4 1146.19 1225.4 1095.94 1175.16 1095.94 1175.16 1146.19 1124.29 1146.19 1124.29 1196.43 1074.03 1196.43 1074.03 1247.31 1124.29 1247.31 1124.29 1297.56 1175.16 1297.56 1175.16 1347.81 1225.4 1347.81 1225.4 1297.56 1275.65 1297.56 1275.65 1247.31 1326.53 1247.31 1326.53 1196.43 1275.65 1196.43 1275.65 1146.19"/></svg>